# File created by Blade
# Date/Time:  Tue Jan 27 18:12:51 2015
#---------------------------------------------------------
:version 1.10
:name HOM
:units
  mass 1.0
  length 1.000000
  angle deg
:documentation
     Acclaim Skeleton File
:root
   axis xyz
   order TX TY TZ RX RY RZ
   position 0.000000 0.000000 0.000000
   orientation 0 0 0
:bonedata
   begin
      id 1
      name Spine_dum
      direction 0.000000 1.000000 0.000000
      length 5.195262
      axis 0.0 0.0 0.0 xyz
   end
   begin
      id 2
      name LeftUpLeg_dum
      direction 1.000000 0.000000 0.000000
      length 3.351363
      axis 0.0 0.0 0.0 xyz
   end
   begin
      id 3
      name RightUpLeg_dum
      direction -1.000000 0.000000 0.000000
      length 3.351363
      axis 0.0 0.0 0.0 xyz
   end
   begin
      id 4
      name Spine
      direction 0.000000 1.000000 0.000000
      length 0.000000
      axis 0.0 0.0 0.0 xyz
      dof rx ry rz
   end
   begin
      id 5
      name Spine_dum1
      direction 0.000000 1.000000 0.000000
      length 15.653875
      axis 0.0 0.0 0.0 xyz
   end
   begin
      id 6
      name Spine_dum2
      direction 0.000000 1.000000 0.000000
      length 10.329768
      axis 0.0 0.0 0.0 xyz
   end
   begin
      id 7
      name Spine_dum3
      direction 0.000000 1.000000 0.000000
      length 10.329768
      axis 0.0 0.0 0.0 xyz
   end
   begin
      id 8
      name Head
      direction 0.000000 1.000000 0.000000
      length 4.527550
      axis 0.0 0.0 0.0 xyz
      dof rx ry rz
   end
   begin
      id 9
      name LeftShoulder
      direction 1.000000 0.000000 0.000000
      length 6.996006
      axis 0.0 0.0 -90.0 xyz
      dof rx ry rz
   end
   begin
      id 10
      name LeftArm
      direction 1.000000 0.000000 0.000000
      length 10.209302
      axis 0.0 0.0 -90.0 xyz
      dof rx ry rz
   end
   begin
      id 11
      name LeftForeArm
      direction 1.000000 0.000000 0.000000
      length 8.563163
      axis 0.0 0.0 -90.0 xyz
      dof ry rz rx
   end
   begin
      id 12
      name LeftHand
      direction 0.000000 0.000000 0.000000
      length 0.000000
      axis 0.0 0.0 -90.0 xyz
      dof rx ry rz
   end
   begin
      id 13
      name LeftHand_dum1
      direction 0.000000 0.000000 0.000000
      length 0.000000
      axis 0.0 0.0 -90.0 xyz
   end
   begin
      id 14
      name LeftHand_dum2
      direction 1.000000 0.000000 0.000000
      length 3.937000
      axis 0.0 0.0 -90.0 xyz
   end
   begin
      id 15
      name LeftHandThumb1
      direction 0.000000 0.000000 1.000000
      length 3.937000
      axis 0.0 0.0 -90.0 xyz
      dof rx rz ry
   end
   begin
      id 16
      name RightShoulder
      direction -1.000000 0.000000 0.000000
      length 6.996006
      axis 0.0 0.0 90.0 xyz
      dof rx ry rz
   end
   begin
      id 17
      name RightArm
      direction -1.000000 0.000000 0.000000
      length 10.209302
      axis 0.0 0.0 90.0 xyz
      dof rx ry rz
   end
   begin
      id 18
      name RightForeArm
      direction -1.000000 0.000000 0.000000
      length 8.563163
      axis 0.0 0.0 90.0 xyz
      dof ry rz rx
   end
   begin
      id 19
      name RightHand
      direction 0.000000 0.000000 0.000000
      length 0.000000
      axis 0.0 0.0 90.0 xyz
      dof rx ry rz
   end
   begin
      id 20
      name RightHand_dum1
      direction 0.000000 0.000000 0.000000
      length 0.000000
      axis 0.0 0.0 90.0 xyz
   end
   begin
      id 21
      name RightHand_dum2
      direction -1.000000 0.000000 0.000000
      length 3.937000
      axis 0.0 0.0 90.0 xyz
   end
   begin
      id 22
      name RightHandThumb1
      direction 0.000000 0.000000 1.000000
      length 3.937000
      axis 0.0 0.0 90.0 xyz
      dof rx rz ry
   end
   begin
      id 23
      name LeftUpLeg
      direction 0.000000 -1.000000 0.000000
      length 16.346831
      axis 0.0 0.0 0.0 xyz
      dof rx ry rz
   end
   begin
      id 24
      name LeftLeg
      direction 0.000000 -1.000000 0.000000
      length 13.959795
      axis 0.0 0.0 0.0 xyz
      dof rx ry rz
   end
   begin
      id 25
      name LeftFoot
      direction 0.000000 -0.258819 0.965926
      length 5.165550
      axis 15.0 0.0 0.0 xyz
      dof rx ry rz
   end
   begin
      id 26
      name LeftToeBase
      direction 0.000000 0.000000 1.000000
      length 2.952750
      axis 0.0 0.0 0.0 xyz
      dof rx ry rz
   end
   begin
      id 27
      name RightUpLeg
      direction 0.000000 -1.000000 0.000000
      length 16.346831
      axis 0.0 0.0 0.0 xyz
      dof rx ry rz
   end
   begin
      id 28
      name RightLeg
      direction 0.000000 -1.000000 0.000000
      length 13.959795
      axis 0.0 0.0 0.0 xyz
      dof rx ry rz
   end
   begin
      id 29
      name RightFoot
      direction 0.000000 -0.258819 0.965926
      length 5.165550
      axis 15.0 0.0 0.0 xyz
      dof rx ry rz
   end
   begin
      id 30
      name RightToeBase
      direction 0.000000 0.000000 1.000000
      length 2.952750
      axis 0.0 0.0 0.0 xyz
      dof rx ry rz
   end
:hierarchy
   begin
      root Spine_dum LeftUpLeg_dum RightUpLeg_dum
      Spine_dum Spine
      LeftUpLeg_dum LeftUpLeg
      RightUpLeg_dum RightUpLeg
      Spine Spine_dum1 Spine_dum2 Spine_dum3
      Spine_dum1 Head
      Spine_dum2 LeftShoulder
      Spine_dum3 RightShoulder
      LeftShoulder LeftArm
      LeftArm LeftForeArm
      LeftForeArm LeftHand
      LeftHand LeftHand_dum1 LeftHand_dum2
      LeftHand_dum1 LeftHandThumb1
      RightShoulder RightArm
      RightArm RightForeArm
      RightForeArm RightHand
      RightHand RightHand_dum1 RightHand_dum2
      RightHand_dum1 RightHandThumb1
      LeftUpLeg LeftLeg
      LeftLeg LeftFoot
      LeftFoot LeftToeBase
      RightUpLeg RightLeg
      RightLeg RightFoot
      RightFoot RightToeBase
   end

# File created by Blade
# Date/Time:  Tue Jan 27 18:12:42 2015
# Frame Rate: 120.000 fps
#------------------------------------------------------
:FULLY-SPECIFIED
:DEGREES
1709
root -1.217492 31.795411 -6.505330 7.003241 7.020129 3.317101
Spine -7.980877 -6.308047 -2.870028
Head 7.815662 -43.632327 2.329330
LeftShoulder -13.110545 17.261282 3.813086
LeftArm 28.847125 42.464544 -66.036659
LeftForeArm -2.077537 -0.000000 16.790761
LeftHand -10.610034 -0.000000 -4.775339
LeftHandThumb1 -26.253704 0.000000 33.147579
RightShoulder -1.662728 13.196374 -13.261134
RightArm 10.318438 38.887344 67.306968
RightForeArm 17.074240 -0.000000 113.285981
RightHand -15.606470 0.000000 -5.615784
RightHandThumb1 -24.326973 -0.000000 -32.862282
LeftUpLeg -2.691714 -1.245127 -1.443428
LeftLeg 1.408840 -0.000000 -0.000000
LeftFoot -18.869078 16.785140 -24.505146
LeftToeBase 8.642214 -0.000000 -0.000000
RightUpLeg 0.247937 -4.292438 -4.099791
RightLeg -3.346977 -0.000000 0.000000
RightFoot -15.705264 -13.495960 10.088512
RightToeBase 5.056721 -0.000000 -0.000000
1710
root -1.216965 31.795084 -6.502682 6.995995 7.036850 3.325068
Spine -7.971645 -6.268974 -2.860941
Head 7.796094 -43.475636 2.402887
LeftShoulder -13.103469 17.235789 3.816785
LeftArm 28.870855 42.544483 -66.022669
LeftForeArm -2.118828 0.000000 16.756140
LeftHand -10.611131 -0.000000 -4.770550
LeftHandThumb1 -26.253704 0.000000 33.147579
RightShoulder -1.631007 13.169565 -13.233915
RightArm 10.290456 39.231227 67.338670
RightForeArm 17.967232 -0.000000 113.830729
RightHand -15.796058 -0.000000 -5.302731
RightHandThumb1 -24.326973 -0.000000 -32.862282
LeftUpLeg -2.677273 -1.260729 -1.450745
LeftLeg 1.402801 -0.000000 -0.000000
LeftFoot -18.870644 16.795002 -24.491056
LeftToeBase 8.637536 -0.000000 -0.000000
RightUpLeg 0.265175 -4.302101 -4.109037
RightLeg -3.350027 -0.000000 0.000000
RightFoot -15.715406 -13.496463 10.093734
RightToeBase 5.046688 -0.000000 -0.000000
1711
root -1.217215 31.794639 -6.500857 6.994730 7.060642 3.327095
Spine -7.967075 -6.226240 -2.842862
Head 7.770024 -43.326988 2.463902
LeftShoulder -13.094183 17.225698 3.817938
LeftArm 28.908100 42.590638 -66.014404
LeftForeArm -2.122825 0.000000 16.704712
LeftHand -10.579169 -0.000000 -4.806265
LeftHandThumb1 -26.253704 0.000000 33.147579
RightShoulder -1.604288 13.138056 -13.199272
RightArm 10.290825 39.568358 67.395347
RightForeArm 18.521480 -0.000000 114.468266
RightHand -15.997865 -0.000000 -5.028109
RightHandThumb1 -24.326973 -0.000000 -32.862282
LeftUpLeg -2.677146 -1.280975 -1.449171
LeftLeg 1.409921 -0.000000 -0.000000
LeftFoot -18.891644 16.767647 -24.544292
LeftToeBase 8.677943 -0.000000 -0.000000
RightUpLeg 0.282061 -4.289805 -4.109095
RightLeg -3.364344 -0.000000 0.000000
RightFoot -15.718387 -13.538128 10.091364
RightToeBase 5.064677 -0.000000 -0.000000
1712
root -1.216879 31.794617 -6.498836 6.991613 7.093845 3.337357
Spine -7.953999 -6.202012 -2.825652
Head 7.726614 -43.158257 2.525141
LeftShoulder -13.104708 17.206773 3.806425
LeftArm 28.941703 42.656261 -65.979511
LeftForeArm -2.189370 -0.000000 16.679472
LeftHand -10.549643 -0.000000 -4.818688
LeftHandThumb1 -26.253704 0.000000 33.147579
RightShoulder -1.577913 13.132820 -13.153852
RightArm 10.293523 39.948518 67.461225
RightForeArm 19.483203 -0.000000 115.170027
RightHand -15.926610 -0.000000 -4.582930
RightHandThumb1 -24.326973 -0.000000 -32.862282
LeftUpLeg -2.676481 -1.309056 -1.454039
LeftLeg 1.420237 -0.000000 -0.000000
LeftFoot -18.878955 16.758497 -24.543905
LeftToeBase 8.646303 -0.000000 -0.000000
RightUpLeg 0.291483 -4.328668 -4.115332
RightLeg -3.354512 -0.000000 0.000000
RightFoot -15.736986 -13.525690 10.111747
RightToeBase 5.070902 -0.000000 -0.000000
